%TF.GenerationSoftware,KiCad,Pcbnew,(6.0.11)*%
%TF.CreationDate,2024-01-24T23:02:21+00:00*%
%TF.ProjectId,RGBtoHDMI_DIN,52474274-6f48-4444-9d49-5f44494e2e6b,rev?*%
%TF.SameCoordinates,Original*%
%TF.FileFunction,Legend,Top*%
%TF.FilePolarity,Positive*%
%FSLAX46Y46*%
G04 Gerber Fmt 4.6, Leading zero omitted, Abs format (unit mm)*
G04 Created by KiCad (PCBNEW (6.0.11)) date 2024-01-24 23:02:21*
%MOMM*%
%LPD*%
G01*
G04 APERTURE LIST*
%ADD10C,0.300000*%
%ADD11C,0.120000*%
G04 APERTURE END LIST*
D10*
X153631428Y-75152857D02*
X154345714Y-74652857D01*
X153631428Y-74295714D02*
X155131428Y-74295714D01*
X155131428Y-74867142D01*
X155060000Y-75010000D01*
X154988571Y-75081428D01*
X154845714Y-75152857D01*
X154631428Y-75152857D01*
X154488571Y-75081428D01*
X154417142Y-75010000D01*
X154345714Y-74867142D01*
X154345714Y-74295714D01*
X155060000Y-76581428D02*
X155131428Y-76438571D01*
X155131428Y-76224285D01*
X155060000Y-76010000D01*
X154917142Y-75867142D01*
X154774285Y-75795714D01*
X154488571Y-75724285D01*
X154274285Y-75724285D01*
X153988571Y-75795714D01*
X153845714Y-75867142D01*
X153702857Y-76010000D01*
X153631428Y-76224285D01*
X153631428Y-76367142D01*
X153702857Y-76581428D01*
X153774285Y-76652857D01*
X154274285Y-76652857D01*
X154274285Y-76367142D01*
X154417142Y-77795714D02*
X154345714Y-78010000D01*
X154274285Y-78081428D01*
X154131428Y-78152857D01*
X153917142Y-78152857D01*
X153774285Y-78081428D01*
X153702857Y-78010000D01*
X153631428Y-77867142D01*
X153631428Y-77295714D01*
X155131428Y-77295714D01*
X155131428Y-77795714D01*
X155060000Y-77938571D01*
X154988571Y-78010000D01*
X154845714Y-78081428D01*
X154702857Y-78081428D01*
X154560000Y-78010000D01*
X154488571Y-77938571D01*
X154417142Y-77795714D01*
X154417142Y-77295714D01*
X154631428Y-78581428D02*
X154631428Y-79152857D01*
X155131428Y-78795714D02*
X153845714Y-78795714D01*
X153702857Y-78867142D01*
X153631428Y-79010000D01*
X153631428Y-79152857D01*
X153631428Y-79867142D02*
X153702857Y-79724285D01*
X153774285Y-79652857D01*
X153917142Y-79581428D01*
X154345714Y-79581428D01*
X154488571Y-79652857D01*
X154560000Y-79724285D01*
X154631428Y-79867142D01*
X154631428Y-80081428D01*
X154560000Y-80224285D01*
X154488571Y-80295714D01*
X154345714Y-80367142D01*
X153917142Y-80367142D01*
X153774285Y-80295714D01*
X153702857Y-80224285D01*
X153631428Y-80081428D01*
X153631428Y-79867142D01*
X153631428Y-81010000D02*
X155131428Y-81010000D01*
X154417142Y-81010000D02*
X154417142Y-81867142D01*
X153631428Y-81867142D02*
X155131428Y-81867142D01*
X153631428Y-82581428D02*
X155131428Y-82581428D01*
X155131428Y-82938571D01*
X155060000Y-83152857D01*
X154917142Y-83295714D01*
X154774285Y-83367142D01*
X154488571Y-83438571D01*
X154274285Y-83438571D01*
X153988571Y-83367142D01*
X153845714Y-83295714D01*
X153702857Y-83152857D01*
X153631428Y-82938571D01*
X153631428Y-82581428D01*
X153631428Y-84081428D02*
X155131428Y-84081428D01*
X154060000Y-84581428D01*
X155131428Y-85081428D01*
X153631428Y-85081428D01*
X153631428Y-85795714D02*
X155131428Y-85795714D01*
X153631428Y-87652857D02*
X155131428Y-87652857D01*
X155131428Y-88010000D01*
X155060000Y-88224285D01*
X154917142Y-88367142D01*
X154774285Y-88438571D01*
X154488571Y-88510000D01*
X154274285Y-88510000D01*
X153988571Y-88438571D01*
X153845714Y-88367142D01*
X153702857Y-88224285D01*
X153631428Y-88010000D01*
X153631428Y-87652857D01*
X153631428Y-89152857D02*
X155131428Y-89152857D01*
X153631428Y-89867142D02*
X155131428Y-89867142D01*
X153631428Y-90724285D01*
X155131428Y-90724285D01*
X154417142Y-93081428D02*
X154345714Y-93295714D01*
X154274285Y-93367142D01*
X154131428Y-93438571D01*
X153917142Y-93438571D01*
X153774285Y-93367142D01*
X153702857Y-93295714D01*
X153631428Y-93152857D01*
X153631428Y-92581428D01*
X155131428Y-92581428D01*
X155131428Y-93081428D01*
X155060000Y-93224285D01*
X154988571Y-93295714D01*
X154845714Y-93367142D01*
X154702857Y-93367142D01*
X154560000Y-93295714D01*
X154488571Y-93224285D01*
X154417142Y-93081428D01*
X154417142Y-92581428D01*
X153631428Y-94081428D02*
X154631428Y-94081428D01*
X154345714Y-94081428D02*
X154488571Y-94152857D01*
X154560000Y-94224285D01*
X154631428Y-94367142D01*
X154631428Y-94510000D01*
X153702857Y-95581428D02*
X153631428Y-95438571D01*
X153631428Y-95152857D01*
X153702857Y-95010000D01*
X153845714Y-94938571D01*
X154417142Y-94938571D01*
X154560000Y-95010000D01*
X154631428Y-95152857D01*
X154631428Y-95438571D01*
X154560000Y-95581428D01*
X154417142Y-95652857D01*
X154274285Y-95652857D01*
X154131428Y-94938571D01*
X153631428Y-96938571D02*
X154417142Y-96938571D01*
X154560000Y-96867142D01*
X154631428Y-96724285D01*
X154631428Y-96438571D01*
X154560000Y-96295714D01*
X153702857Y-96938571D02*
X153631428Y-96795714D01*
X153631428Y-96438571D01*
X153702857Y-96295714D01*
X153845714Y-96224285D01*
X153988571Y-96224285D01*
X154131428Y-96295714D01*
X154202857Y-96438571D01*
X154202857Y-96795714D01*
X154274285Y-96938571D01*
X153631428Y-97652857D02*
X155131428Y-97652857D01*
X154202857Y-97795714D02*
X153631428Y-98224285D01*
X154631428Y-98224285D02*
X154060000Y-97652857D01*
X153631428Y-99081428D02*
X153702857Y-98938571D01*
X153774285Y-98867142D01*
X153917142Y-98795714D01*
X154345714Y-98795714D01*
X154488571Y-98867142D01*
X154560000Y-98938571D01*
X154631428Y-99081428D01*
X154631428Y-99295714D01*
X154560000Y-99438571D01*
X154488571Y-99510000D01*
X154345714Y-99581428D01*
X153917142Y-99581428D01*
X153774285Y-99510000D01*
X153702857Y-99438571D01*
X153631428Y-99295714D01*
X153631428Y-99081428D01*
X154631428Y-100867142D02*
X153631428Y-100867142D01*
X154631428Y-100224285D02*
X153845714Y-100224285D01*
X153702857Y-100295714D01*
X153631428Y-100438571D01*
X153631428Y-100652857D01*
X153702857Y-100795714D01*
X153774285Y-100867142D01*
X154631428Y-101367142D02*
X154631428Y-101938571D01*
X155131428Y-101581428D02*
X153845714Y-101581428D01*
X153702857Y-101652857D01*
X153631428Y-101795714D01*
X153631428Y-101938571D01*
D11*
%TO.C,J2*%
X155350000Y-67435000D02*
X155350000Y-68765000D01*
X154020000Y-67435000D02*
X155350000Y-67435000D01*
X152750000Y-67435000D02*
X152750000Y-70035000D01*
X155350000Y-72635000D02*
X139990000Y-72635000D01*
X152750000Y-67435000D02*
X139990000Y-67435000D01*
X155350000Y-70035000D02*
X155350000Y-72635000D01*
X152750000Y-70035000D02*
X155350000Y-70035000D01*
X139990000Y-67435000D02*
X139990000Y-72635000D01*
%TD*%
M02*
