%TF.GenerationSoftware,KiCad,Pcbnew,(6.0.11)*%
%TF.CreationDate,2024-01-24T23:02:21+00:00*%
%TF.ProjectId,RGBtoHDMI_DIN,52474274-6f48-4444-9d49-5f44494e2e6b,rev?*%
%TF.SameCoordinates,Original*%
%TF.FileFunction,Copper,L2,Bot*%
%TF.FilePolarity,Positive*%
%FSLAX46Y46*%
G04 Gerber Fmt 4.6, Leading zero omitted, Abs format (unit mm)*
G04 Created by KiCad (PCBNEW (6.0.11)) date 2024-01-24 23:02:21*
%MOMM*%
%LPD*%
G01*
G04 APERTURE LIST*
G04 Aperture macros list*
%AMHorizOval*
0 Thick line with rounded ends*
0 $1 width*
0 $2 $3 position (X,Y) of the first rounded end (center of the circle)*
0 $4 $5 position (X,Y) of the second rounded end (center of the circle)*
0 Add line between two ends*
20,1,$1,$2,$3,$4,$5,0*
0 Add two circle primitives to create the rounded ends*
1,1,$1,$2,$3*
1,1,$1,$4,$5*%
G04 Aperture macros list end*
%TA.AperFunction,ComponentPad*%
%ADD10HorizOval,2.500000X0.433013X0.250000X-0.433013X-0.250000X0*%
%TD*%
%TA.AperFunction,ComponentPad*%
%ADD11HorizOval,2.500000X0.433013X-0.250000X-0.433013X0.250000X0*%
%TD*%
%TA.AperFunction,ComponentPad*%
%ADD12O,2.500000X3.500000*%
%TD*%
%TA.AperFunction,ComponentPad*%
%ADD13HorizOval,2.500000X-0.433013X-0.250000X0.433013X0.250000X0*%
%TD*%
%TA.AperFunction,ComponentPad*%
%ADD14HorizOval,2.500000X-0.433013X0.250000X0.433013X-0.250000X0*%
%TD*%
%TA.AperFunction,ComponentPad*%
%ADD15C,3.000000*%
%TD*%
%TA.AperFunction,ComponentPad*%
%ADD16R,1.700000X1.700000*%
%TD*%
%TA.AperFunction,ComponentPad*%
%ADD17O,1.700000X1.700000*%
%TD*%
%TA.AperFunction,Conductor*%
%ADD18C,0.300000*%
%TD*%
G04 APERTURE END LIST*
D10*
%TO.P,J1,1*%
%TO.N,/RED3*%
X151306218Y-85910000D03*
D11*
%TO.P,J1,2*%
%TO.N,/GREEN3*%
X151306218Y-90110000D03*
D12*
%TO.P,J1,3*%
%TO.N,/BLUE3*%
X147670000Y-92210000D03*
D13*
%TO.P,J1,4*%
%TO.N,/HSYNC*%
X144033782Y-90110000D03*
D14*
%TO.P,J1,5*%
%TO.N,/GND*%
X144033782Y-85910000D03*
D15*
%TO.P,J1,6*%
%TO.N,/5v*%
X147670000Y-88010000D03*
%TD*%
D16*
%TO.P,J2,1,Pin_1*%
%TO.N,unconnected-(J2-Pad1)*%
X154020000Y-68765000D03*
D17*
%TO.P,J2,2,Pin_2*%
%TO.N,unconnected-(J2-Pad2)*%
X154020000Y-71305000D03*
%TO.P,J2,3,Pin_3*%
%TO.N,/GND*%
X151480000Y-68765000D03*
%TO.P,J2,4,Pin_4*%
%TO.N,unconnected-(J2-Pad4)*%
X151480000Y-71305000D03*
%TO.P,J2,5,Pin_5*%
%TO.N,unconnected-(J2-Pad5)*%
X148940000Y-68765000D03*
%TO.P,J2,6,Pin_6*%
%TO.N,unconnected-(J2-Pad6)*%
X148940000Y-71305000D03*
%TO.P,J2,7,Pin_7*%
%TO.N,/RED3*%
X146400000Y-68765000D03*
%TO.P,J2,8,Pin_8*%
%TO.N,/HSYNC*%
X146400000Y-71305000D03*
%TO.P,J2,9,Pin_9*%
%TO.N,/GREEN3*%
X143860000Y-68765000D03*
%TO.P,J2,10,Pin_10*%
%TO.N,unconnected-(J2-Pad10)*%
X143860000Y-71305000D03*
%TO.P,J2,11,Pin_11*%
%TO.N,/BLUE3*%
X141320000Y-68765000D03*
%TO.P,J2,12,Pin_12*%
%TO.N,/5v*%
X141320000Y-71305000D03*
%TD*%
D18*
%TO.N,/RED3*%
X150700000Y-86260000D02*
X152140000Y-84820000D01*
X152140000Y-84820000D02*
X152140000Y-76260000D01*
X147740000Y-71860000D02*
X147740000Y-70105000D01*
X147740000Y-70105000D02*
X146400000Y-68765000D01*
X152140000Y-76260000D02*
X147740000Y-71860000D01*
%TO.N,/BLUE3*%
X140740000Y-91010000D02*
X140740000Y-72422057D01*
X140120000Y-69965000D02*
X141320000Y-68765000D01*
X140120000Y-71802057D02*
X140120000Y-69965000D01*
X147670000Y-91510000D02*
X146150000Y-93030000D01*
X146150000Y-93030000D02*
X142760000Y-93030000D01*
X140740000Y-72422057D02*
X140120000Y-71802057D01*
X142760000Y-93030000D02*
X140740000Y-91010000D01*
%TO.N,/HSYNC*%
X144400000Y-89760000D02*
X141740000Y-87100000D01*
X141740000Y-75965000D02*
X146400000Y-71305000D01*
X141740000Y-87100000D02*
X141740000Y-75965000D01*
X144640000Y-89760000D02*
X144400000Y-89760000D01*
%TO.N,/GND*%
X144740000Y-86160000D02*
X148500000Y-86160000D01*
X152690000Y-71671350D02*
X152690000Y-69975000D01*
X150280000Y-87940000D02*
X151887453Y-87940000D01*
X148500000Y-86160000D02*
X150280000Y-87940000D01*
X144640000Y-86260000D02*
X144740000Y-86160000D01*
X153456243Y-72437593D02*
X152690000Y-71671350D01*
X151887453Y-87940000D02*
X153456243Y-86371210D01*
X153456243Y-86371210D02*
X153456243Y-72437593D01*
X152690000Y-69975000D02*
X151480000Y-68765000D01*
%TO.N,/5v*%
X147670000Y-89085017D02*
X144498128Y-92256889D01*
X141240000Y-71385000D02*
X141320000Y-71305000D01*
X144498128Y-92256889D02*
X143146889Y-92256889D01*
X147670000Y-88010000D02*
X147670000Y-89085017D01*
X143146889Y-92256889D02*
X141240000Y-90350000D01*
X141240000Y-90350000D02*
X141240000Y-71385000D01*
%TD*%
M02*
